<svg width="344" height="64" viewBox="0 0 344 64" fill="none" xmlns="http://www.w3.org/2000/svg">
<rect x="0.6" y="0.6" width="342.8" height="62.8" rx="15.4" stroke="#292929" stroke-width="1.2"/>
<path d="M63.6037 24.4545H66.2386V33.9574C66.2386 34.9991 65.9924 35.9152 65.5 36.706C65.0123 37.4967 64.3258 38.1146 63.4403 38.5597C62.5549 39 61.5204 39.2202 60.3366 39.2202C59.1482 39.2202 58.1113 39 57.2259 38.5597C56.3404 38.1146 55.6539 37.4967 55.1662 36.706C54.6785 35.9152 54.4347 34.9991 54.4347 33.9574V24.4545H57.0696V33.7372C57.0696 34.3433 57.2022 34.883 57.4673 35.3565C57.7372 35.83 58.116 36.2017 58.6037 36.4716C59.0914 36.7367 59.669 36.8693 60.3366 36.8693C61.0043 36.8693 61.5819 36.7367 62.0696 36.4716C62.562 36.2017 62.9408 35.83 63.206 35.3565C63.4711 34.883 63.6037 34.3433 63.6037 33.7372V24.4545ZM68.989 39V28.0909H71.4464V29.9446H71.5742C71.8015 29.3196 72.1779 28.8319 72.7035 28.4815C73.229 28.1264 73.8564 27.9489 74.5856 27.9489C75.3242 27.9489 75.9469 28.1288 76.4535 28.4886C76.9648 28.8437 77.3247 29.3291 77.533 29.9446H77.6467C77.8881 29.3385 78.2953 28.8556 78.8683 28.4957C79.4459 28.1312 80.1301 27.9489 80.9208 27.9489C81.9246 27.9489 82.7437 28.2661 83.3782 28.9006C84.0127 29.535 84.3299 30.4607 84.3299 31.6776V39H81.7518V32.0753C81.7518 31.3982 81.5719 30.9034 81.212 30.5909C80.8522 30.2737 80.4118 30.1151 79.891 30.1151C79.2707 30.1151 78.7854 30.3092 78.435 30.6974C78.0894 31.081 77.9165 31.5805 77.9165 32.196V39H75.3952V31.9688C75.3952 31.4053 75.2248 30.9555 74.8839 30.6193C74.5477 30.2831 74.1074 30.1151 73.5629 30.1151C73.1935 30.1151 72.8574 30.2098 72.5543 30.3991C72.2513 30.5838 72.0098 30.8466 71.8299 31.1875C71.65 31.5237 71.56 31.9167 71.56 32.3665V39H68.989ZM90.0774 39.2202C89.3861 39.2202 88.7635 39.0971 88.2095 38.8509C87.6603 38.5999 87.2247 38.2306 86.9027 37.7429C86.5855 37.2552 86.4268 36.6539 86.4268 35.9389C86.4268 35.3234 86.5405 34.8144 86.7678 34.4119C86.995 34.0095 87.3052 33.6875 87.6982 33.446C88.0911 33.2045 88.5339 33.0223 89.0263 32.8991C89.5234 32.7713 90.0372 32.679 90.5675 32.6222C91.2067 32.5559 91.7251 32.4967 92.1229 32.4446C92.5206 32.3878 92.8094 32.3026 92.9893 32.1889C93.174 32.0705 93.2663 31.8883 93.2663 31.642V31.5994C93.2663 31.0644 93.1077 30.6501 92.7905 30.3565C92.4732 30.063 92.0163 29.9162 91.4197 29.9162C90.79 29.9162 90.2905 30.0535 89.9212 30.3281C89.5566 30.6027 89.3104 30.9271 89.1825 31.3011L86.782 30.9602C86.9714 30.2973 87.2839 29.7434 87.7195 29.2983C88.1551 28.8485 88.6877 28.5123 89.3175 28.2898C89.9472 28.0625 90.6432 27.9489 91.4055 27.9489C91.9311 27.9489 92.4543 28.0104 92.9751 28.1335C93.496 28.2566 93.9718 28.4602 94.4027 28.7443C94.8336 29.0237 95.1792 29.4048 95.4396 29.8878C95.7048 30.3707 95.8374 30.9744 95.8374 31.6989V39H93.3658V37.5014H93.2805C93.1243 37.8045 92.9041 38.0885 92.62 38.3537C92.3407 38.6141 91.9879 38.8248 91.5618 38.9858C91.1404 39.142 90.6456 39.2202 90.0774 39.2202ZM90.745 37.331C91.2611 37.331 91.7086 37.2292 92.0874 37.0256C92.4661 36.8172 92.7573 36.5426 92.9609 36.2017C93.1693 35.8608 93.2734 35.4891 93.2734 35.0866V33.8011C93.1929 33.8674 93.0556 33.929 92.8615 33.9858C92.6721 34.0426 92.459 34.0923 92.2223 34.1349C91.9856 34.1776 91.7512 34.2154 91.5192 34.2486C91.2872 34.2817 91.0859 34.3101 90.9155 34.3338C90.532 34.3859 90.1887 34.4711 89.8857 34.5895C89.5826 34.7079 89.3435 34.8736 89.1683 35.0866C88.9931 35.295 88.9055 35.5649 88.9055 35.8963C88.9055 36.3698 89.0784 36.7273 89.424 36.9688C89.7696 37.2102 90.21 37.331 90.745 37.331ZM100.994 32.608V39H98.4226V28.0909H100.88V29.9446H101.008C101.259 29.3338 101.659 28.8485 102.208 28.4886C102.762 28.1288 103.446 27.9489 104.261 27.9489C105.013 27.9489 105.669 28.1098 106.228 28.4318C106.791 28.7538 107.227 29.2202 107.535 29.831C107.847 30.4418 108.001 31.1828 107.996 32.054V39H105.425V32.4517C105.425 31.7225 105.236 31.152 104.857 30.7401C104.483 30.3281 103.965 30.1222 103.302 30.1222C102.852 30.1222 102.452 30.2216 102.102 30.4205C101.756 30.6146 101.484 30.8963 101.285 31.2656C101.091 31.6349 100.994 32.0824 100.994 32.608ZM110.61 28.0909H113.181V39.625C113.181 40.411 113.032 41.0597 112.734 41.571C112.435 42.0824 112.004 42.4635 111.441 42.7145C110.878 42.9654 110.193 43.0909 109.388 43.0909C109.294 43.0909 109.206 43.0885 109.126 43.0838C109.045 43.0838 108.958 43.0814 108.863 43.0767V40.9815C108.934 40.9863 108.998 40.9886 109.055 40.9886C109.112 40.9934 109.171 40.9957 109.232 40.9957C109.725 40.9957 110.077 40.875 110.29 40.6335C110.504 40.3968 110.61 40.0488 110.61 39.5895V28.0909ZM111.888 26.5426C111.477 26.5426 111.124 26.4077 110.83 26.1378C110.541 25.8632 110.397 25.5341 110.397 25.1506C110.397 24.7623 110.541 24.4332 110.83 24.1634C111.124 23.8887 111.477 23.7514 111.888 23.7514C112.296 23.7514 112.644 23.8887 112.933 24.1634C113.226 24.4332 113.373 24.7623 113.373 25.1506C113.373 25.5341 113.226 25.8632 112.933 26.1378C112.644 26.4077 112.296 26.5426 111.888 26.5426ZM115.825 39V28.0909H118.396V39H115.825ZM117.118 26.5426C116.71 26.5426 116.36 26.4077 116.066 26.1378C115.773 25.8632 115.626 25.5341 115.626 25.1506C115.626 24.7623 115.773 24.4332 116.066 24.1634C116.36 23.8887 116.71 23.7514 117.118 23.7514C117.529 23.7514 117.88 23.8887 118.169 24.1634C118.462 24.4332 118.609 24.7623 118.609 25.1506C118.609 25.5341 118.462 25.8632 118.169 26.1378C117.88 26.4077 117.529 26.5426 117.118 26.5426ZM125.859 39V37.3665L131.484 30.3139V30.2216H126.043V28.0909H134.63V29.8452L129.275 36.777V36.8693H134.815V39H125.859ZM140.37 39.2202C139.679 39.2202 139.056 39.0971 138.502 38.8509C137.953 38.5999 137.518 38.2306 137.196 37.7429C136.878 37.2552 136.72 36.6539 136.72 35.9389C136.72 35.3234 136.833 34.8144 137.061 34.4119C137.288 34.0095 137.598 33.6875 137.991 33.446C138.384 33.2045 138.827 33.0223 139.319 32.8991C139.816 32.7713 140.33 32.679 140.86 32.6222C141.5 32.5559 142.018 32.4967 142.416 32.4446C142.814 32.3878 143.102 32.3026 143.282 32.1889C143.467 32.0705 143.559 31.8883 143.559 31.642V31.5994C143.559 31.0644 143.401 30.6501 143.083 30.3565C142.766 30.063 142.309 29.9162 141.713 29.9162C141.083 29.9162 140.583 30.0535 140.214 30.3281C139.85 30.6027 139.603 30.9271 139.475 31.3011L137.075 30.9602C137.264 30.2973 137.577 29.7434 138.012 29.2983C138.448 28.8485 138.981 28.5123 139.61 28.2898C140.24 28.0625 140.936 27.9489 141.699 27.9489C142.224 27.9489 142.747 28.0104 143.268 28.1335C143.789 28.2566 144.265 28.4602 144.696 28.7443C145.127 29.0237 145.472 29.4048 145.733 29.8878C145.998 30.3707 146.13 30.9744 146.13 31.6989V39H143.659V37.5014H143.574C143.417 37.8045 143.197 38.0885 142.913 38.3537C142.634 38.6141 142.281 38.8248 141.855 38.9858C141.433 39.142 140.939 39.2202 140.37 39.2202ZM141.038 37.331C141.554 37.331 142.002 37.2292 142.38 37.0256C142.759 36.8172 143.05 36.5426 143.254 36.2017C143.462 35.8608 143.566 35.4891 143.566 35.0866V33.8011C143.486 33.8674 143.349 33.929 143.154 33.9858C142.965 34.0426 142.752 34.0923 142.515 34.1349C142.279 34.1776 142.044 34.2154 141.812 34.2486C141.58 34.2817 141.379 34.3101 141.208 34.3338C140.825 34.3859 140.482 34.4711 140.179 34.5895C139.876 34.7079 139.636 34.8736 139.461 35.0866C139.286 35.295 139.199 35.5649 139.199 35.8963C139.199 36.3698 139.371 36.7273 139.717 36.9688C140.063 37.2102 140.503 37.331 141.038 37.331ZM160.63 34.4119V28.0909H163.201V39H160.708V37.0611H160.594C160.348 37.6719 159.943 38.1714 159.38 38.5597C158.821 38.9479 158.132 39.142 157.313 39.142C156.598 39.142 155.966 38.9834 155.417 38.6662C154.872 38.3442 154.446 37.8778 154.138 37.267C153.83 36.6515 153.676 35.9081 153.676 35.0369V28.0909H156.248V34.6392C156.248 35.3305 156.437 35.8797 156.816 36.2869C157.194 36.6941 157.692 36.8977 158.307 36.8977C158.686 36.8977 159.053 36.8054 159.408 36.6207C159.763 36.4361 160.054 36.1615 160.282 35.7969C160.514 35.4276 160.63 34.9659 160.63 34.4119ZM168.415 32.608V39H165.844V28.0909H168.302V29.9446H168.43C168.681 29.3338 169.081 28.8485 169.63 28.4886C170.184 28.1288 170.868 27.9489 171.683 27.9489C172.435 27.9489 173.091 28.1098 173.65 28.4318C174.213 28.7538 174.649 29.2202 174.957 29.831C175.269 30.4418 175.423 31.1828 175.418 32.054V39H172.847V32.4517C172.847 31.7225 172.658 31.152 172.279 30.7401C171.905 30.3281 171.387 30.1222 170.724 30.1222C170.274 30.1222 169.874 30.2216 169.523 30.4205C169.178 30.6146 168.906 30.8963 168.707 31.2656C168.513 31.6349 168.415 32.0824 168.415 32.608ZM182.862 39.2131C181.768 39.2131 180.823 38.9858 180.028 38.5312C179.237 38.072 178.629 37.4233 178.202 36.5852C177.776 35.7424 177.563 34.7505 177.563 33.6094C177.563 32.4872 177.776 31.5024 178.202 30.6548C178.633 29.8026 179.235 29.1397 180.006 28.6662C180.778 28.188 181.685 27.9489 182.727 27.9489C183.399 27.9489 184.033 28.0578 184.63 28.2756C185.231 28.4886 185.762 28.8201 186.221 29.2699C186.685 29.7197 187.049 30.2926 187.315 30.9886C187.58 31.6799 187.712 32.5038 187.712 33.4602V34.2486H178.771V32.5156H185.248C185.243 32.0232 185.137 31.5852 184.928 31.2017C184.72 30.8134 184.429 30.508 184.055 30.2855C183.685 30.063 183.254 29.9517 182.762 29.9517C182.237 29.9517 181.775 30.0795 181.377 30.3352C180.979 30.5862 180.669 30.9176 180.447 31.3295C180.229 31.7367 180.118 32.1842 180.113 32.6719V34.1847C180.113 34.8191 180.229 35.3636 180.461 35.8182C180.693 36.268 181.017 36.6136 181.434 36.8551C181.851 37.0919 182.338 37.2102 182.897 37.2102C183.271 37.2102 183.61 37.1581 183.913 37.054C184.216 36.9451 184.478 36.7865 184.701 36.5781C184.924 36.3698 185.092 36.1117 185.205 35.804L187.606 36.0739C187.454 36.7083 187.165 37.2623 186.739 37.7358C186.318 38.2045 185.778 38.5691 185.12 38.8295C184.462 39.0852 183.709 39.2131 182.862 39.2131ZM195.335 28.0909V30.0795H189.064V28.0909H195.335ZM190.612 25.4773H193.183V35.7188C193.183 36.0644 193.235 36.3295 193.339 36.5142C193.448 36.6941 193.59 36.8172 193.765 36.8835C193.94 36.9498 194.135 36.983 194.348 36.983C194.509 36.983 194.655 36.9711 194.788 36.9474C194.925 36.9238 195.029 36.9025 195.1 36.8835L195.534 38.8935C195.396 38.9408 195.2 38.9929 194.944 39.0497C194.693 39.1065 194.386 39.1397 194.021 39.1491C193.377 39.1681 192.797 39.071 192.281 38.858C191.765 38.6402 191.355 38.304 191.052 37.8494C190.754 37.3949 190.607 36.8267 190.612 36.1449V25.4773ZM197.485 39V28.0909H200.056V39H197.485ZM198.778 26.5426C198.371 26.5426 198.02 26.4077 197.727 26.1378C197.433 25.8632 197.286 25.5341 197.286 25.1506C197.286 24.7623 197.433 24.4332 197.727 24.1634C198.02 23.8887 198.371 23.7514 198.778 23.7514C199.19 23.7514 199.54 23.8887 199.829 24.1634C200.122 24.4332 200.269 24.7623 200.269 25.1506C200.269 25.5341 200.122 25.8632 199.829 26.1378C199.54 26.4077 199.19 26.5426 198.778 26.5426ZM207.661 39V28.0909H210.232V39H207.661ZM208.953 26.5426C208.546 26.5426 208.196 26.4077 207.902 26.1378C207.609 25.8632 207.462 25.5341 207.462 25.1506C207.462 24.7623 207.609 24.4332 207.902 24.1634C208.196 23.8887 208.546 23.7514 208.953 23.7514C209.365 23.7514 209.716 23.8887 210.005 24.1634C210.298 24.4332 210.445 24.7623 210.445 25.1506C210.445 25.5341 210.298 25.8632 210.005 26.1378C209.716 26.4077 209.365 26.5426 208.953 26.5426ZM212.734 39V37.3665L218.359 30.3139V30.2216H212.918V28.0909H221.505V29.8452L216.15 36.777V36.8693H221.69V39H212.734ZM226.677 32.608V39H224.106V28.0909H226.564V29.9446H226.691C226.942 29.3338 227.342 28.8485 227.892 28.4886C228.446 28.1288 229.13 27.9489 229.944 27.9489C230.697 27.9489 231.353 28.1098 231.912 28.4318C232.475 28.7538 232.911 29.2202 233.218 29.831C233.531 30.4418 233.685 31.1828 233.68 32.054V39H231.109V32.4517C231.109 31.7225 230.92 31.152 230.541 30.7401C230.167 30.3281 229.648 30.1222 228.985 30.1222C228.536 30.1222 228.136 30.2216 227.785 30.4205C227.44 30.6146 227.167 30.8963 226.968 31.2656C226.774 31.6349 226.677 32.0824 226.677 32.608ZM241.052 39.2131C239.987 39.2131 239.064 38.9787 238.282 38.5099C237.501 38.0412 236.895 37.3854 236.464 36.5426C236.038 35.6998 235.825 34.715 235.825 33.5881C235.825 32.4612 236.038 31.474 236.464 30.6264C236.895 29.7789 237.501 29.1207 238.282 28.652C239.064 28.1832 239.987 27.9489 241.052 27.9489C242.118 27.9489 243.041 28.1832 243.822 28.652C244.603 29.1207 245.207 29.7789 245.633 30.6264C246.064 31.474 246.279 32.4612 246.279 33.5881C246.279 34.715 246.064 35.6998 245.633 36.5426C245.207 37.3854 244.603 38.0412 243.822 38.5099C243.041 38.9787 242.118 39.2131 241.052 39.2131ZM241.066 37.1534C241.644 37.1534 242.127 36.9948 242.515 36.6776C242.904 36.3556 243.192 35.9247 243.382 35.3849C243.576 34.8452 243.673 34.2438 243.673 33.581C243.673 32.9134 243.576 32.3097 243.382 31.7699C243.192 31.2254 242.904 30.7921 242.515 30.4702C242.127 30.1482 241.644 29.9872 241.066 29.9872C240.475 29.9872 239.982 30.1482 239.589 30.4702C239.201 30.7921 238.91 31.2254 238.716 31.7699C238.526 32.3097 238.431 32.9134 238.431 33.581C238.431 34.2438 238.526 34.8452 238.716 35.3849C238.91 35.9247 239.201 36.3556 239.589 36.6776C239.982 36.9948 240.475 37.1534 241.066 37.1534ZM257.084 30.9744L254.74 31.2301C254.674 30.9934 254.558 30.7708 254.392 30.5625C254.231 30.3542 254.013 30.1861 253.739 30.0582C253.464 29.9304 253.128 29.8665 252.73 29.8665C252.195 29.8665 251.745 29.9825 251.381 30.2145C251.021 30.4465 250.843 30.7472 250.848 31.1165C250.843 31.4337 250.959 31.6918 251.196 31.8906C251.438 32.0895 251.835 32.2528 252.389 32.3807L254.25 32.7784C255.282 33.0009 256.049 33.3537 256.551 33.8366C257.058 34.3196 257.313 34.9517 257.318 35.733C257.313 36.4195 257.112 37.0256 256.714 37.5511C256.321 38.072 255.775 38.4792 255.074 38.7727C254.373 39.0663 253.568 39.2131 252.659 39.2131C251.324 39.2131 250.249 38.9337 249.435 38.375C248.62 37.8116 248.135 37.0279 247.979 36.0241L250.486 35.7827C250.599 36.2751 250.841 36.6468 251.21 36.8977C251.58 37.1487 252.06 37.2741 252.652 37.2741C253.263 37.2741 253.753 37.1487 254.122 36.8977C254.496 36.6468 254.683 36.3366 254.683 35.9673C254.683 35.6548 254.563 35.3968 254.321 35.1932C254.084 34.9896 253.715 34.8333 253.213 34.7244L251.352 34.3338C250.306 34.116 249.532 33.7491 249.03 33.233C248.528 32.7121 248.279 32.054 248.284 31.2585C248.279 30.5862 248.462 30.0038 248.831 29.5114C249.205 29.0142 249.723 28.6307 250.386 28.3608C251.054 28.0862 251.823 27.9489 252.695 27.9489C253.973 27.9489 254.979 28.2211 255.713 28.7656C256.452 29.3101 256.909 30.0464 257.084 30.9744Z" fill="#292929"/>
<mask id="mask0_118_86" style="mask-type:alpha" maskUnits="userSpaceOnUse" x="267" y="20" width="24" height="24">
<rect x="267" y="20" width="24" height="24" fill="#D9D9D9"/>
</mask>
<g mask="url(#mask0_118_86)">
<path d="M273 33V31H285V33H273Z" fill="#1C1B1F"/>
</g>
</svg>
