<svg width="344" height="64" viewBox="0 0 344 64" fill="none" xmlns="http://www.w3.org/2000/svg">
<rect width="344" height="64" rx="16" fill="#FFD33E"/>
<path d="M66.6037 24.4545H69.2386V33.9574C69.2386 34.9991 68.9924 35.9152 68.5 36.706C68.0123 37.4967 67.3258 38.1146 66.4403 38.5597C65.5549 39 64.5204 39.2202 63.3366 39.2202C62.1482 39.2202 61.1113 39 60.2259 38.5597C59.3404 38.1146 58.6539 37.4967 58.1662 36.706C57.6785 35.9152 57.4347 34.9991 57.4347 33.9574V24.4545H60.0696V33.7372C60.0696 34.3433 60.2022 34.883 60.4673 35.3565C60.7372 35.83 61.116 36.2017 61.6037 36.4716C62.0914 36.7367 62.669 36.8693 63.3366 36.8693C64.0043 36.8693 64.5819 36.7367 65.0696 36.4716C65.562 36.2017 65.9408 35.83 66.206 35.3565C66.4711 34.883 66.6037 34.3433 66.6037 33.7372V24.4545ZM81.7333 28.0909L77.8484 39H75.0075L71.1225 28.0909H73.864L76.3711 36.1946H76.4847L78.9989 28.0909H81.7333ZM87.9709 39.2131C86.8771 39.2131 85.9325 38.9858 85.1371 38.5312C84.3464 38.072 83.7379 37.4233 83.3118 36.5852C82.8857 35.7424 82.6726 34.7505 82.6726 33.6094C82.6726 32.4872 82.8857 31.5024 83.3118 30.6548C83.7427 29.8026 84.344 29.1397 85.1158 28.6662C85.8875 28.188 86.7943 27.9489 87.8359 27.9489C88.5083 27.9489 89.1428 28.0578 89.7393 28.2756C90.3407 28.4886 90.871 28.8201 91.3303 29.2699C91.7943 29.7197 92.1589 30.2926 92.424 30.9886C92.6892 31.6799 92.8217 32.5038 92.8217 33.4602V34.2486H83.88V32.5156H90.3572C90.3525 32.0232 90.246 31.5852 90.0376 31.2017C89.8293 30.8134 89.5381 30.508 89.1641 30.2855C88.7947 30.063 88.3639 29.9517 87.8714 29.9517C87.3459 29.9517 86.8842 30.0795 86.4865 30.3352C86.0888 30.5862 85.7786 30.9176 85.5561 31.3295C85.3383 31.7367 85.227 32.1842 85.2223 32.6719V34.1847C85.2223 34.8191 85.3383 35.3636 85.5703 35.8182C85.8023 36.268 86.1267 36.6136 86.5433 36.8551C86.96 37.0919 87.4477 37.2102 88.0064 37.2102C88.3804 37.2102 88.719 37.1581 89.022 37.054C89.325 36.9451 89.5878 36.7865 89.8104 36.5781C90.0329 36.3698 90.201 36.1117 90.3146 35.804L92.7152 36.0739C92.5637 36.7083 92.2749 37.2623 91.8487 37.7358C91.4273 38.2045 90.8875 38.5691 90.2294 38.8295C89.5713 39.0852 88.8184 39.2131 87.9709 39.2131ZM99.7553 39.2131C98.6663 39.2131 97.7312 38.974 96.9499 38.4957C96.1734 38.0175 95.5745 37.357 95.1531 36.5142C94.7364 35.6667 94.5281 34.6913 94.5281 33.5881C94.5281 32.4801 94.7411 31.5024 95.1673 30.6548C95.5934 29.8026 96.1947 29.1397 96.9712 28.6662C97.7525 28.188 98.6758 27.9489 99.7411 27.9489C100.627 27.9489 101.41 28.1122 102.092 28.4389C102.779 28.7609 103.325 29.2178 103.733 29.8097C104.14 30.3968 104.372 31.0833 104.429 31.8693H101.971C101.872 31.3437 101.635 30.9058 101.261 30.5554C100.892 30.2003 100.397 30.0227 99.7766 30.0227C99.2511 30.0227 98.7894 30.1648 98.3917 30.4489C97.994 30.7282 97.6838 31.1307 97.4613 31.6562C97.2435 32.1818 97.1346 32.8116 97.1346 33.5455C97.1346 34.2888 97.2435 34.928 97.4613 35.4631C97.6791 35.9934 97.9845 36.4029 98.3775 36.6918C98.7752 36.9759 99.2416 37.1179 99.7766 37.1179C100.155 37.1179 100.494 37.0469 100.792 36.9048C101.095 36.758 101.349 36.5473 101.552 36.2727C101.756 35.9981 101.895 35.6643 101.971 35.2713H104.429C104.367 36.0431 104.14 36.7273 103.747 37.3239C103.354 37.9157 102.819 38.3797 102.142 38.7159C101.465 39.0473 100.669 39.2131 99.7553 39.2131ZM98.7468 26.6562L100.338 23.4105H102.852L100.672 26.6562H98.7468ZM109.679 39.2202C108.988 39.2202 108.365 39.0971 107.811 38.8509C107.262 38.5999 106.826 38.2306 106.504 37.7429C106.187 37.2552 106.028 36.6539 106.028 35.9389C106.028 35.3234 106.142 34.8144 106.369 34.4119C106.597 34.0095 106.907 33.6875 107.3 33.446C107.693 33.2045 108.135 33.0223 108.628 32.8991C109.125 32.7713 109.639 32.679 110.169 32.6222C110.808 32.5559 111.327 32.4967 111.724 32.4446C112.122 32.3878 112.411 32.3026 112.591 32.1889C112.776 32.0705 112.868 31.8883 112.868 31.642V31.5994C112.868 31.0644 112.709 30.6501 112.392 30.3565C112.075 30.063 111.618 29.9162 111.021 29.9162C110.392 29.9162 109.892 30.0535 109.523 30.3281C109.158 30.6027 108.912 30.9271 108.784 31.3011L106.384 30.9602C106.573 30.2973 106.885 29.7434 107.321 29.2983C107.757 28.8485 108.289 28.5123 108.919 28.2898C109.549 28.0625 110.245 27.9489 111.007 27.9489C111.533 27.9489 112.056 28.0104 112.577 28.1335C113.098 28.2566 113.573 28.4602 114.004 28.7443C114.435 29.0237 114.781 29.4048 115.041 29.8878C115.306 30.3707 115.439 30.9744 115.439 31.6989V39H112.967V37.5014H112.882C112.726 37.8045 112.506 38.0885 112.222 38.3537C111.942 38.6141 111.589 38.8248 111.163 38.9858C110.742 39.142 110.247 39.2202 109.679 39.2202ZM110.347 37.331C110.863 37.331 111.31 37.2292 111.689 37.0256C112.068 36.8172 112.359 36.5426 112.562 36.2017C112.771 35.8608 112.875 35.4891 112.875 35.0866V33.8011C112.795 33.8674 112.657 33.929 112.463 33.9858C112.274 34.0426 112.061 34.0923 111.824 34.1349C111.587 34.1776 111.353 34.2154 111.121 34.2486C110.889 34.2817 110.688 34.3101 110.517 34.3338C110.134 34.3859 109.79 34.4711 109.487 34.5895C109.184 34.7079 108.945 34.8736 108.77 35.0866C108.595 35.295 108.507 35.5649 108.507 35.8963C108.507 36.3698 108.68 36.7273 109.026 36.9688C109.371 37.2102 109.812 37.331 110.347 37.331ZM118.024 28.0909H120.595V39.625C120.595 40.411 120.446 41.0597 120.148 41.571C119.849 42.0824 119.419 42.4635 118.855 42.7145C118.292 42.9654 117.607 43.0909 116.803 43.0909C116.708 43.0909 116.62 43.0885 116.54 43.0838C116.459 43.0838 116.372 43.0814 116.277 43.0767V40.9815C116.348 40.9863 116.412 40.9886 116.469 40.9886C116.526 40.9934 116.585 40.9957 116.646 40.9957C117.139 40.9957 117.491 40.875 117.705 40.6335C117.918 40.3968 118.024 40.0488 118.024 39.5895V28.0909ZM119.303 26.5426C118.891 26.5426 118.538 26.4077 118.244 26.1378C117.955 25.8632 117.811 25.5341 117.811 25.1506C117.811 24.7623 117.955 24.4332 118.244 24.1634C118.538 23.8887 118.891 23.7514 119.303 23.7514C119.71 23.7514 120.058 23.8887 120.347 24.1634C120.64 24.4332 120.787 24.7623 120.787 25.1506C120.787 25.5341 120.64 25.8632 120.347 26.1378C120.058 26.4077 119.71 26.5426 119.303 26.5426ZM128.058 39V37.3665L133.683 30.3139V30.2216H128.243V28.0909H136.829V29.8452L131.474 36.777V36.8693H137.014V39H128.058ZM142.57 39.2202C141.878 39.2202 141.256 39.0971 140.702 38.8509C140.152 38.5999 139.717 38.2306 139.395 37.7429C139.078 37.2552 138.919 36.6539 138.919 35.9389C138.919 35.3234 139.033 34.8144 139.26 34.4119C139.487 34.0095 139.797 33.6875 140.19 33.446C140.583 33.2045 141.026 33.0223 141.518 32.8991C142.016 32.7713 142.529 32.679 143.06 32.6222C143.699 32.5559 144.217 32.4967 144.615 32.4446C145.013 32.3878 145.302 32.3026 145.482 32.1889C145.666 32.0705 145.759 31.8883 145.759 31.642V31.5994C145.759 31.0644 145.6 30.6501 145.283 30.3565C144.965 30.063 144.509 29.9162 143.912 29.9162C143.282 29.9162 142.783 30.0535 142.413 30.3281C142.049 30.6027 141.803 30.9271 141.675 31.3011L139.274 30.9602C139.464 30.2973 139.776 29.7434 140.212 29.2983C140.647 28.8485 141.18 28.5123 141.81 28.2898C142.439 28.0625 143.135 27.9489 143.898 27.9489C144.423 27.9489 144.946 28.0104 145.467 28.1335C145.988 28.2566 146.464 28.4602 146.895 28.7443C147.326 29.0237 147.671 29.4048 147.932 29.8878C148.197 30.3707 148.33 30.9744 148.33 31.6989V39H145.858V37.5014H145.773C145.616 37.8045 145.396 38.0885 145.112 38.3537C144.833 38.6141 144.48 38.8248 144.054 38.9858C143.633 39.142 143.138 39.2202 142.57 39.2202ZM143.237 37.331C143.753 37.331 144.201 37.2292 144.58 37.0256C144.958 36.8172 145.25 36.5426 145.453 36.2017C145.661 35.8608 145.766 35.4891 145.766 35.0866V33.8011C145.685 33.8674 145.548 33.929 145.354 33.9858C145.164 34.0426 144.951 34.0923 144.714 34.1349C144.478 34.1776 144.243 34.2154 144.011 34.2486C143.779 34.2817 143.578 34.3101 143.408 34.3338C143.024 34.3859 142.681 34.4711 142.378 34.5895C142.075 34.7079 141.836 34.8736 141.661 35.0866C141.485 35.295 141.398 35.5649 141.398 35.8963C141.398 36.3698 141.571 36.7273 141.916 36.9688C142.262 37.2102 142.702 37.331 143.237 37.331ZM162.829 34.4119V28.0909H165.4V39H162.907V37.0611H162.793C162.547 37.6719 162.142 38.1714 161.579 38.5597C161.02 38.9479 160.331 39.142 159.512 39.142C158.797 39.142 158.165 38.9834 157.616 38.6662C157.071 38.3442 156.645 37.8778 156.337 37.267C156.03 36.6515 155.876 35.9081 155.876 35.0369V28.0909H158.447V34.6392C158.447 35.3305 158.636 35.8797 159.015 36.2869C159.394 36.6941 159.891 36.8977 160.506 36.8977C160.885 36.8977 161.252 36.8054 161.607 36.6207C161.962 36.4361 162.254 36.1615 162.481 35.7969C162.713 35.4276 162.829 34.9659 162.829 34.4119ZM170.615 32.608V39H168.044V28.0909H170.501V29.9446H170.629C170.88 29.3338 171.28 28.8485 171.829 28.4886C172.383 28.1288 173.067 27.9489 173.882 27.9489C174.635 27.9489 175.29 28.1098 175.849 28.4318C176.413 28.7538 176.848 29.2202 177.156 29.831C177.468 30.4418 177.622 31.1828 177.618 32.054V39H175.047V32.4517C175.047 31.7225 174.857 31.152 174.478 30.7401C174.104 30.3281 173.586 30.1222 172.923 30.1222C172.473 30.1222 172.073 30.2216 171.723 30.4205C171.377 30.6146 171.105 30.8963 170.906 31.2656C170.712 31.6349 170.615 32.0824 170.615 32.608ZM185.061 39.2131C183.967 39.2131 183.022 38.9858 182.227 38.5312C181.436 38.072 180.828 37.4233 180.402 36.5852C179.975 35.7424 179.762 34.7505 179.762 33.6094C179.762 32.4872 179.975 31.5024 180.402 30.6548C180.833 29.8026 181.434 29.1397 182.206 28.6662C182.977 28.188 183.884 27.9489 184.926 27.9489C185.598 27.9489 186.233 28.0578 186.829 28.2756C187.431 28.4886 187.961 28.8201 188.42 29.2699C188.884 29.7197 189.249 30.2926 189.514 30.9886C189.779 31.6799 189.912 32.5038 189.912 33.4602V34.2486H180.97V32.5156H187.447C187.442 32.0232 187.336 31.5852 187.127 31.2017C186.919 30.8134 186.628 30.508 186.254 30.2855C185.885 30.063 185.454 29.9517 184.961 29.9517C184.436 29.9517 183.974 30.0795 183.576 30.3352C183.179 30.5862 182.868 30.9176 182.646 31.3295C182.428 31.7367 182.317 32.1842 182.312 32.6719V34.1847C182.312 34.8191 182.428 35.3636 182.66 35.8182C182.892 36.268 183.217 36.6136 183.633 36.8551C184.05 37.0919 184.538 37.2102 185.096 37.2102C185.47 37.2102 185.809 37.1581 186.112 37.054C186.415 36.9451 186.678 36.7865 186.9 36.5781C187.123 36.3698 187.291 36.1117 187.404 35.804L189.805 36.0739C189.654 36.7083 189.365 37.2623 188.939 37.7358C188.517 38.2045 187.977 38.5691 187.319 38.8295C186.661 39.0852 185.908 39.2131 185.061 39.2131ZM197.534 28.0909V30.0795H191.263V28.0909H197.534ZM192.811 25.4773H195.382V35.7188C195.382 36.0644 195.434 36.3295 195.538 36.5142C195.647 36.6941 195.789 36.8172 195.964 36.8835C196.14 36.9498 196.334 36.983 196.547 36.983C196.708 36.983 196.855 36.9711 196.987 36.9474C197.125 36.9238 197.229 36.9025 197.3 36.8835L197.733 38.8935C197.596 38.9408 197.399 38.9929 197.143 39.0497C196.893 39.1065 196.585 39.1397 196.22 39.1491C195.576 39.1681 194.996 39.071 194.48 38.858C193.964 38.6402 193.554 38.304 193.251 37.8494C192.953 37.3949 192.806 36.8267 192.811 36.1449V25.4773ZM204.645 39V28.0909H207.216V39H204.645ZM205.938 26.5426C205.531 26.5426 205.18 26.4077 204.887 26.1378C204.593 25.8632 204.446 25.5341 204.446 25.1506C204.446 24.7623 204.593 24.4332 204.887 24.1634C205.18 23.8887 205.531 23.7514 205.938 23.7514C206.35 23.7514 206.7 23.8887 206.989 24.1634C207.283 24.4332 207.429 24.7623 207.429 25.1506C207.429 25.5341 207.283 25.8632 206.989 26.1378C206.7 26.4077 206.35 26.5426 205.938 26.5426ZM209.718 39V37.3665L215.343 30.3139V30.2216H209.903V28.0909H218.489V29.8452L213.134 36.777V36.8693H218.674V39H209.718ZM223.662 32.608V39H221.091V28.0909H223.548V29.9446H223.676C223.927 29.3338 224.327 28.8485 224.876 28.4886C225.43 28.1288 226.114 27.9489 226.929 27.9489C227.681 27.9489 228.337 28.1098 228.896 28.4318C229.459 28.7538 229.895 29.2202 230.203 29.831C230.515 30.4418 230.669 31.1828 230.664 32.054V39H228.093V32.4517C228.093 31.7225 227.904 31.152 227.525 30.7401C227.151 30.3281 226.633 30.1222 225.97 30.1222C225.52 30.1222 225.12 30.2216 224.77 30.4205C224.424 30.6146 224.152 30.8963 223.953 31.2656C223.759 31.6349 223.662 32.0824 223.662 32.608ZM238.037 39.2131C236.971 39.2131 236.048 38.9787 235.267 38.5099C234.485 38.0412 233.879 37.3854 233.449 36.5426C233.022 35.6998 232.809 34.715 232.809 33.5881C232.809 32.4612 233.022 31.474 233.449 30.6264C233.879 29.7789 234.485 29.1207 235.267 28.652C236.048 28.1832 236.971 27.9489 238.037 27.9489C239.102 27.9489 240.025 28.1832 240.806 28.652C241.588 29.1207 242.191 29.7789 242.618 30.6264C243.048 31.474 243.264 32.4612 243.264 33.5881C243.264 34.715 243.048 35.6998 242.618 36.5426C242.191 37.3854 241.588 38.0412 240.806 38.5099C240.025 38.9787 239.102 39.2131 238.037 39.2131ZM238.051 37.1534C238.628 37.1534 239.111 36.9948 239.5 36.6776C239.888 36.3556 240.177 35.9247 240.366 35.3849C240.56 34.8452 240.657 34.2438 240.657 33.581C240.657 32.9134 240.56 32.3097 240.366 31.7699C240.177 31.2254 239.888 30.7921 239.5 30.4702C239.111 30.1482 238.628 29.9872 238.051 29.9872C237.459 29.9872 236.967 30.1482 236.574 30.4702C236.185 30.7921 235.894 31.2254 235.7 31.7699C235.511 32.3097 235.416 32.9134 235.416 33.581C235.416 34.2438 235.511 34.8452 235.7 35.3849C235.894 35.9247 236.185 36.3556 236.574 36.6776C236.967 36.9948 237.459 37.1534 238.051 37.1534ZM254.068 30.9744L251.724 31.2301C251.658 30.9934 251.542 30.7708 251.376 30.5625C251.215 30.3542 250.998 30.1861 250.723 30.0582C250.448 29.9304 250.112 29.8665 249.714 29.8665C249.179 29.8665 248.73 29.9825 248.365 30.2145C248.005 30.4465 247.828 30.7472 247.832 31.1165C247.828 31.4337 247.944 31.6918 248.18 31.8906C248.422 32.0895 248.82 32.2528 249.374 32.3807L251.234 32.7784C252.267 33.0009 253.034 33.3537 253.536 33.8366C254.042 34.3196 254.298 34.9517 254.303 35.733C254.298 36.4195 254.097 37.0256 253.699 37.5511C253.306 38.072 252.759 38.4792 252.058 38.7727C251.357 39.0663 250.553 39.2131 249.643 39.2131C248.308 39.2131 247.233 38.9337 246.419 38.375C245.605 37.8116 245.119 37.0279 244.963 36.0241L247.47 35.7827C247.584 36.2751 247.825 36.6468 248.195 36.8977C248.564 37.1487 249.045 37.2741 249.636 37.2741C250.247 37.2741 250.737 37.1487 251.107 36.8977C251.481 36.6468 251.668 36.3366 251.668 35.9673C251.668 35.6548 251.547 35.3968 251.305 35.1932C251.069 34.9896 250.699 34.8333 250.197 34.7244L248.337 34.3338C247.29 34.116 246.516 33.7491 246.014 33.233C245.512 32.7121 245.264 32.054 245.268 31.2585C245.264 30.5862 245.446 30.0038 245.815 29.5114C246.189 29.0142 246.708 28.6307 247.371 28.3608C248.038 28.0862 248.808 27.9489 249.679 27.9489C250.957 27.9489 251.964 28.2211 252.697 28.7656C253.436 29.3101 253.893 30.0464 254.068 30.9744Z" fill="#474747"/>
<mask id="mask0_114_155" style="mask-type:alpha" maskUnits="userSpaceOnUse" x="264" y="20" width="24" height="24">
<rect x="264" y="20" width="24" height="24" fill="#D9D9D9"/>
</mask>
<g mask="url(#mask0_114_155)">
<path d="M275 33H269V31H275V25H277V31H283V33H277V39H275V33Z" fill="#1C1B1F"/>
</g>
</svg>
